<svg width="762" height="102" viewBox="0 0 762 102" fill="none" xmlns="http://www.w3.org/2000/svg">
<rect width="762" height="102" fill="white"/>
<path d="M142.852 68L148.648 33.0909H162.42C165.057 33.0909 167.222 33.5966 168.915 34.608C170.619 35.608 171.813 37 172.494 38.7841C173.188 40.5568 173.347 42.6023 172.972 44.9205C172.585 47.25 171.744 49.3011 170.449 51.0739C169.165 52.8352 167.494 54.2102 165.438 55.1989C163.381 56.1875 161.006 56.6818 158.312 56.6818H149.534L150.506 50.767H158.091C159.523 50.767 160.744 50.5227 161.756 50.0341C162.778 49.5341 163.591 48.8466 164.193 47.9716C164.795 47.0852 165.188 46.0682 165.369 44.9205C165.563 43.75 165.5 42.733 165.182 41.8693C164.864 41.0057 164.278 40.3352 163.426 39.858C162.585 39.3693 161.455 39.125 160.034 39.125H155.057L150.233 68H142.852ZM185.236 68.5114C182.565 68.5114 180.355 67.9432 178.605 66.8068C176.855 65.6591 175.622 64.0682 174.906 62.0341C174.202 59.9886 174.071 57.608 174.514 54.892C174.946 52.2102 175.844 49.8636 177.207 47.8523C178.571 45.8409 180.304 44.2784 182.406 43.1648C184.509 42.0398 186.878 41.4773 189.514 41.4773C192.173 41.4773 194.378 42.0511 196.128 43.1989C197.878 44.3352 199.111 45.9261 199.827 47.9716C200.543 50.017 200.679 52.3977 200.236 55.1136C199.793 57.7841 198.884 60.125 197.509 62.1364C196.134 64.1477 194.401 65.7159 192.31 66.8409C190.219 67.9545 187.861 68.5114 185.236 68.5114ZM185.952 62.8864C187.179 62.8864 188.264 62.5398 189.207 61.8466C190.162 61.142 190.952 60.1875 191.577 58.983C192.213 57.767 192.656 56.392 192.906 54.858C193.156 53.3466 193.173 52.0057 192.957 50.8352C192.741 49.6534 192.287 48.7216 191.594 48.0398C190.912 47.358 189.974 47.017 188.781 47.017C187.554 47.017 186.463 47.3693 185.509 48.0739C184.554 48.767 183.764 49.7216 183.139 50.9375C182.514 52.1534 182.077 53.5341 181.827 55.0795C181.588 56.5795 181.571 57.9205 181.776 59.1023C181.98 60.2727 182.429 61.1989 183.122 61.8807C183.815 62.5511 184.759 62.8864 185.952 62.8864ZM202.81 68L207.173 41.8182H214.213L213.446 46.3864H213.719C214.469 44.7614 215.474 43.5341 216.736 42.7045C218.009 41.8636 219.378 41.4432 220.844 41.4432C221.207 41.4432 221.588 41.4659 221.986 41.5114C222.395 41.5455 222.759 41.6023 223.077 41.6818L221.986 48.142C221.668 48.0284 221.213 47.9375 220.622 47.8693C220.043 47.7898 219.491 47.75 218.969 47.75C217.912 47.75 216.929 47.983 216.02 48.4489C215.111 48.9034 214.344 49.5398 213.719 50.358C213.105 51.1761 212.702 52.1193 212.509 53.1875L210.071 68H202.81ZM242.053 41.8182L241.149 47.2727H225.365L226.286 41.8182H242.053ZM230.888 35.5455H238.149L234.092 59.9545C233.979 60.625 233.996 61.1477 234.143 61.5227C234.291 61.8864 234.536 62.142 234.876 62.2898C235.229 62.4375 235.649 62.5114 236.138 62.5114C236.479 62.5114 236.825 62.483 237.178 62.4261C237.53 62.358 237.797 62.3068 237.979 62.2727L238.251 67.6761C237.842 67.8011 237.291 67.9375 236.598 68.0852C235.916 68.233 235.109 68.3239 234.178 68.358C232.405 68.4261 230.905 68.1932 229.678 67.6591C228.45 67.1136 227.57 66.2784 227.036 65.1534C226.501 64.0284 226.388 62.6136 226.695 60.9091L230.888 35.5455ZM260.879 41.8182L259.976 47.2727H243.817L244.72 41.8182H260.879ZM244.038 68L248.726 39.9261C249.033 38.0284 249.658 36.4545 250.601 35.2045C251.555 33.9545 252.732 33.017 254.129 32.392C255.538 31.767 257.061 31.4545 258.697 31.4545C259.811 31.4545 260.817 31.5398 261.714 31.7102C262.624 31.8807 263.283 32.0341 263.692 32.1705L261.527 37.625C261.254 37.5341 260.919 37.4489 260.521 37.3693C260.124 37.2898 259.703 37.25 259.26 37.25C258.203 37.25 257.425 37.5 256.925 38C256.436 38.4886 256.107 39.1761 255.936 40.0625L251.283 68H244.038ZM271.861 68.5114C269.19 68.5114 266.98 67.9432 265.23 66.8068C263.48 65.6591 262.247 64.0682 261.531 62.0341C260.827 59.9886 260.696 57.608 261.139 54.892C261.571 52.2102 262.469 49.8636 263.832 47.8523C265.196 45.8409 266.929 44.2784 269.031 43.1648C271.134 42.0398 273.503 41.4773 276.139 41.4773C278.798 41.4773 281.003 42.0511 282.753 43.1989C284.503 44.3352 285.736 45.9261 286.452 47.9716C287.168 50.017 287.304 52.3977 286.861 55.1136C286.418 57.7841 285.509 60.125 284.134 62.1364C282.759 64.1477 281.026 65.7159 278.935 66.8409C276.844 67.9545 274.486 68.5114 271.861 68.5114ZM272.577 62.8864C273.804 62.8864 274.889 62.5398 275.832 61.8466C276.787 61.142 277.577 60.1875 278.202 58.983C278.838 57.767 279.281 56.392 279.531 54.858C279.781 53.3466 279.798 52.0057 279.582 50.8352C279.366 49.6534 278.912 48.7216 278.219 48.0398C277.537 47.358 276.599 47.017 275.406 47.017C274.179 47.017 273.088 47.3693 272.134 48.0739C271.179 48.767 270.389 49.7216 269.764 50.9375C269.139 52.1534 268.702 53.5341 268.452 55.0795C268.213 56.5795 268.196 57.9205 268.401 59.1023C268.605 60.2727 269.054 61.1989 269.747 61.8807C270.44 62.5511 271.384 62.8864 272.577 62.8864ZM274.094 38.4432L279.02 30.6875H285.736L279.241 38.4432H274.094ZM302.491 33.0909L296.696 68H289.435L295.23 33.0909H302.491ZM302.513 68L306.876 41.8182H314.138L309.774 68H302.513ZM311.257 38.4091C310.178 38.4091 309.286 38.0511 308.581 37.3352C307.888 36.608 307.604 35.7443 307.729 34.7443C307.854 33.7216 308.342 32.858 309.195 32.1534C310.047 31.4375 311.013 31.0795 312.092 31.0795C313.172 31.0795 314.053 31.4375 314.734 32.1534C315.416 32.858 315.7 33.7216 315.587 34.7443C315.473 35.7443 314.99 36.608 314.138 37.3352C313.297 38.0511 312.337 38.4091 311.257 38.4091ZM327.455 68.5114C324.784 68.5114 322.574 67.9432 320.824 66.8068C319.074 65.6591 317.841 64.0682 317.125 62.0341C316.42 59.9886 316.29 57.608 316.733 54.892C317.165 52.2102 318.063 49.8636 319.426 47.8523C320.79 45.8409 322.523 44.2784 324.625 43.1648C326.727 42.0398 329.097 41.4773 331.733 41.4773C334.392 41.4773 336.597 42.0511 338.347 43.1989C340.097 44.3352 341.33 45.9261 342.045 47.9716C342.761 50.017 342.898 52.3977 342.455 55.1136C342.011 57.7841 341.102 60.125 339.727 62.1364C338.352 64.1477 336.619 65.7159 334.528 66.8409C332.438 67.9545 330.08 68.5114 327.455 68.5114ZM328.17 62.8864C329.398 62.8864 330.483 62.5398 331.426 61.8466C332.381 61.142 333.17 60.1875 333.795 58.983C334.432 57.767 334.875 56.392 335.125 54.858C335.375 53.3466 335.392 52.0057 335.176 50.8352C334.96 49.6534 334.506 48.7216 333.812 48.0398C333.131 47.358 332.193 47.017 331 47.017C329.773 47.017 328.682 47.3693 327.727 48.0739C326.773 48.767 325.983 49.7216 325.358 50.9375C324.733 52.1534 324.295 53.5341 324.045 55.0795C323.807 56.5795 323.79 57.9205 323.994 59.1023C324.199 60.2727 324.648 61.1989 325.341 61.8807C326.034 62.5511 326.977 62.8864 328.17 62.8864ZM354.553 77.8182L360.587 41.8182H367.746L367.013 46.2159H367.337C367.768 45.5114 368.342 44.7955 369.058 44.0682C369.786 43.3295 370.689 42.7159 371.768 42.2273C372.848 41.7273 374.115 41.4773 375.57 41.4773C377.49 41.4773 379.166 41.9773 380.598 42.9773C382.03 43.9659 383.064 45.4602 383.7 47.4602C384.348 49.4489 384.422 51.9432 383.922 54.9432C383.445 57.8636 382.564 60.3295 381.28 62.3409C380.007 64.3409 378.479 65.858 376.695 66.892C374.922 67.9148 373.041 68.4261 371.053 68.4261C369.643 68.4261 368.484 68.1932 367.575 67.7273C366.678 67.2614 365.979 66.6761 365.479 65.9716C364.979 65.2557 364.626 64.5341 364.422 63.8068H364.149L361.831 77.8182H354.553ZM365.513 54.9091C365.263 56.4659 365.251 57.8239 365.479 58.983C365.717 60.142 366.195 61.0455 366.911 61.6932C367.626 62.3295 368.57 62.6477 369.74 62.6477C370.922 62.6477 371.973 62.3239 372.893 61.6761C373.814 61.017 374.581 60.108 375.195 58.9489C375.808 57.7784 376.246 56.4318 376.507 54.9091C376.746 53.3977 376.751 52.0682 376.524 50.9205C376.297 49.7727 375.831 48.875 375.126 48.2273C374.422 47.5795 373.467 47.2557 372.263 47.2557C371.092 47.2557 370.041 47.5682 369.109 48.1932C368.189 48.8182 367.422 49.7045 366.808 50.8523C366.195 52 365.763 53.3523 365.513 54.9091ZM386.56 68L390.923 41.8182H397.963L397.196 46.3864H397.469C398.219 44.7614 399.224 43.5341 400.486 42.7045C401.759 41.8636 403.128 41.4432 404.594 41.4432C404.957 41.4432 405.338 41.4659 405.736 41.5114C406.145 41.5455 406.509 41.6023 406.827 41.6818L405.736 48.142C405.418 48.0284 404.963 47.9375 404.372 47.8693C403.793 47.7898 403.241 47.75 402.719 47.75C401.662 47.75 400.679 47.983 399.77 48.4489C398.861 48.9034 398.094 49.5398 397.469 50.358C396.855 51.1761 396.452 52.1193 396.259 53.1875L393.821 68H386.56ZM416.845 68.5114C414.175 68.5114 411.964 67.9432 410.214 66.8068C408.464 65.6591 407.232 64.0682 406.516 62.0341C405.811 59.9886 405.68 57.608 406.124 54.892C406.555 52.2102 407.453 49.8636 408.817 47.8523C410.18 45.8409 411.913 44.2784 414.016 43.1648C416.118 42.0398 418.487 41.4773 421.124 41.4773C423.783 41.4773 425.987 42.0511 427.737 43.1989C429.487 44.3352 430.72 45.9261 431.436 47.9716C432.152 50.017 432.288 52.3977 431.845 55.1136C431.402 57.7841 430.493 60.125 429.118 62.1364C427.743 64.1477 426.01 65.7159 423.919 66.8409C421.828 67.9545 419.47 68.5114 416.845 68.5114ZM417.561 62.8864C418.788 62.8864 419.874 62.5398 420.817 61.8466C421.771 61.142 422.561 60.1875 423.186 58.983C423.822 57.767 424.266 56.392 424.516 54.858C424.766 53.3466 424.783 52.0057 424.567 50.8352C424.351 49.6534 423.896 48.7216 423.203 48.0398C422.521 47.358 421.584 47.017 420.391 47.017C419.163 47.017 418.072 47.3693 417.118 48.0739C416.163 48.767 415.374 49.7216 414.749 50.9375C414.124 52.1534 413.686 53.5341 413.436 55.0795C413.197 56.5795 413.18 57.9205 413.385 59.1023C413.589 60.2727 414.038 61.1989 414.732 61.8807C415.425 62.5511 416.368 62.8864 417.561 62.8864ZM452.879 41.8182L451.976 47.2727H435.817L436.72 41.8182H452.879ZM436.038 68L440.726 39.9261C441.033 38.0284 441.658 36.4545 442.601 35.2045C443.555 33.9545 444.732 33.017 446.129 32.392C447.538 31.767 449.061 31.4545 450.697 31.4545C451.811 31.4545 452.817 31.5398 453.714 31.7102C454.624 31.8807 455.283 32.0341 455.692 32.1705L453.527 37.625C453.254 37.5341 452.919 37.4489 452.521 37.3693C452.124 37.2898 451.703 37.25 451.26 37.25C450.203 37.25 449.425 37.5 448.925 38C448.436 38.4886 448.107 39.1761 447.936 40.0625L443.283 68H436.038ZM452.935 68L457.298 41.8182H464.56L460.196 68H452.935ZM461.679 38.4091C460.599 38.4091 459.707 38.0511 459.003 37.3352C458.31 36.608 458.026 35.7443 458.151 34.7443C458.276 33.7216 458.764 32.858 459.616 32.1534C460.469 31.4375 461.435 31.0795 462.514 31.0795C463.594 31.0795 464.474 31.4375 465.156 32.1534C465.838 32.858 466.122 33.7216 466.009 34.7443C465.895 35.7443 465.412 36.608 464.56 37.3352C463.719 38.0511 462.759 38.4091 461.679 38.4091ZM490.882 49.2841L484.286 49.6932C484.251 49.1136 484.092 48.5966 483.808 48.142C483.536 47.6761 483.132 47.3068 482.598 47.0341C482.075 46.7614 481.416 46.625 480.621 46.625C479.428 46.625 478.365 46.8977 477.433 47.4432C476.501 47.9886 475.973 48.6875 475.848 49.5398C475.746 50.0852 475.888 50.5455 476.274 50.9205C476.661 51.2955 477.439 51.6136 478.609 51.875L483.212 52.8295C485.666 53.3523 487.439 54.2216 488.53 55.4375C489.632 56.6534 490.024 58.2443 489.706 60.2102C489.422 61.8807 488.689 63.3409 487.507 64.5909C486.325 65.8295 484.825 66.7955 483.007 67.4886C481.189 68.1705 479.172 68.5114 476.956 68.5114C473.399 68.5114 470.695 67.7841 468.842 66.3295C466.99 64.875 466.098 62.9034 466.166 60.4148L473.257 60.0398C473.314 61.108 473.689 61.9148 474.382 62.4602C475.075 62.9943 476.024 63.267 477.229 63.2784C478.581 63.3011 479.729 63.0227 480.672 62.4432C481.626 61.8523 482.166 61.1364 482.291 60.2955C482.382 59.7045 482.212 59.2273 481.78 58.8636C481.359 58.5 480.587 58.1989 479.462 57.9602L475.098 57.0568C472.621 56.5455 470.842 55.6307 469.763 54.3125C468.683 52.9943 468.314 51.3182 468.655 49.2841C468.928 47.6591 469.604 46.267 470.683 45.108C471.774 43.9375 473.178 43.0398 474.893 42.4148C476.621 41.7898 478.57 41.4773 480.74 41.4773C484.138 41.4773 486.695 42.1761 488.411 43.5739C490.138 44.9716 490.962 46.875 490.882 49.2841ZM517.835 49.2841L511.239 49.6932C511.205 49.1136 511.045 48.5966 510.761 48.142C510.489 47.6761 510.085 47.3068 509.551 47.0341C509.028 46.7614 508.369 46.625 507.574 46.625C506.381 46.625 505.318 46.8977 504.386 47.4432C503.455 47.9886 502.926 48.6875 502.801 49.5398C502.699 50.0852 502.841 50.5455 503.227 50.9205C503.614 51.2955 504.392 51.6136 505.562 51.875L510.165 52.8295C512.619 53.3523 514.392 54.2216 515.483 55.4375C516.585 56.6534 516.977 58.2443 516.659 60.2102C516.375 61.8807 515.642 63.3409 514.46 64.5909C513.278 65.8295 511.778 66.7955 509.96 67.4886C508.142 68.1705 506.125 68.5114 503.909 68.5114C500.352 68.5114 497.648 67.7841 495.795 66.3295C493.943 64.875 493.051 62.9034 493.119 60.4148L500.21 60.0398C500.267 61.108 500.642 61.9148 501.335 62.4602C502.028 62.9943 502.977 63.267 504.182 63.2784C505.534 63.3011 506.682 63.0227 507.625 62.4432C508.58 61.8523 509.119 61.1364 509.244 60.2955C509.335 59.7045 509.165 59.2273 508.733 58.8636C508.313 58.5 507.54 58.1989 506.415 57.9602L502.051 57.0568C499.574 56.5455 497.795 55.6307 496.716 54.3125C495.636 52.9943 495.267 51.3182 495.608 49.2841C495.881 47.6591 496.557 46.267 497.636 45.108C498.727 43.9375 500.131 43.0398 501.847 42.4148C503.574 41.7898 505.523 41.4773 507.693 41.4773C511.091 41.4773 513.648 42.1761 515.364 43.5739C517.091 44.9716 517.915 46.875 517.835 49.2841ZM519.919 68L524.283 41.8182H531.544L527.18 68H519.919ZM528.663 38.4091C527.584 38.4091 526.692 38.0511 525.987 37.3352C525.294 36.608 525.01 35.7443 525.135 34.7443C525.26 33.7216 525.749 32.858 526.601 32.1534C527.453 31.4375 528.419 31.0795 529.499 31.0795C530.578 31.0795 531.459 31.4375 532.141 32.1534C532.822 32.858 533.107 33.7216 532.993 34.7443C532.879 35.7443 532.396 36.608 531.544 37.3352C530.703 38.0511 529.743 38.4091 528.663 38.4091ZM544.861 68.5114C542.19 68.5114 539.98 67.9432 538.23 66.8068C536.48 65.6591 535.247 64.0682 534.531 62.0341C533.827 59.9886 533.696 57.608 534.139 54.892C534.571 52.2102 535.469 49.8636 536.832 47.8523C538.196 45.8409 539.929 44.2784 542.031 43.1648C544.134 42.0398 546.503 41.4773 549.139 41.4773C551.798 41.4773 554.003 42.0511 555.753 43.1989C557.503 44.3352 558.736 45.9261 559.452 47.9716C560.168 50.017 560.304 52.3977 559.861 55.1136C559.418 57.7841 558.509 60.125 557.134 62.1364C555.759 64.1477 554.026 65.7159 551.935 66.8409C549.844 67.9545 547.486 68.5114 544.861 68.5114ZM545.577 62.8864C546.804 62.8864 547.889 62.5398 548.832 61.8466C549.787 61.142 550.577 60.1875 551.202 58.983C551.838 57.767 552.281 56.392 552.531 54.858C552.781 53.3466 552.798 52.0057 552.582 50.8352C552.366 49.6534 551.912 48.7216 551.219 48.0398C550.537 47.358 549.599 47.017 548.406 47.017C547.179 47.017 546.088 47.3693 545.134 48.0739C544.179 48.767 543.389 49.7216 542.764 50.9375C542.139 52.1534 541.702 53.5341 541.452 55.0795C541.213 56.5795 541.196 57.9205 541.401 59.1023C541.605 60.2727 542.054 61.1989 542.747 61.8807C543.44 62.5511 544.384 62.8864 545.577 62.8864ZM572.253 52.8636L569.73 68H562.486L566.849 41.8182H573.753L573.003 46.4375H573.293C574.122 44.9034 575.293 43.6932 576.804 42.8068C578.327 41.9205 580.06 41.4773 582.003 41.4773C583.821 41.4773 585.338 41.875 586.554 42.6705C587.781 43.4659 588.645 44.5966 589.145 46.0625C589.656 47.5284 589.741 49.2841 589.401 51.3295L586.605 68H579.344L581.918 52.625C582.179 51.0227 581.974 49.7727 581.304 48.875C580.645 47.9659 579.582 47.5114 578.116 47.5114C577.139 47.5114 576.241 47.7216 575.423 48.142C574.605 48.5625 573.918 49.1761 573.361 49.983C572.815 50.7784 572.446 51.7386 572.253 52.8636ZM599.692 68.4943C598.033 68.4943 596.595 68.2045 595.379 67.625C594.175 67.0341 593.288 66.1591 592.72 65C592.152 63.8409 592.01 62.4034 592.294 60.6875C592.544 59.233 593.016 58.017 593.709 57.0398C594.413 56.0511 595.271 55.2557 596.283 54.6534C597.294 54.0511 598.413 53.5909 599.641 53.2727C600.879 52.9545 602.158 52.7386 603.476 52.625C604.999 52.4659 606.237 52.3125 607.192 52.1648C608.158 52.017 608.879 51.8068 609.357 51.5341C609.834 51.25 610.124 50.8295 610.226 50.2727V50.1705C610.396 49.1023 610.197 48.2727 609.629 47.6818C609.072 47.0795 608.18 46.7784 606.953 46.7784C605.658 46.7784 604.555 47.0625 603.646 47.6307C602.749 48.1989 602.107 48.9205 601.72 49.7955L595.107 49.25C595.697 47.6591 596.589 46.2841 597.783 45.125C598.987 43.9545 600.436 43.0568 602.129 42.4318C603.822 41.7955 605.72 41.4773 607.822 41.4773C609.277 41.4773 610.635 41.6477 611.896 41.9886C613.169 42.3295 614.266 42.858 615.186 43.5739C616.118 44.2898 616.788 45.2102 617.197 46.3352C617.618 47.4489 617.703 48.7841 617.453 50.3409L614.504 68H607.618L608.232 64.3693H608.027C607.47 65.1875 606.788 65.9091 605.982 66.5341C605.175 67.1477 604.249 67.6307 603.203 67.983C602.158 68.3239 600.987 68.4943 599.692 68.4943ZM602.607 63.483C603.663 63.483 604.635 63.2727 605.521 62.8523C606.419 62.4205 607.158 61.8409 607.737 61.1136C608.328 60.3864 608.703 59.5625 608.862 58.642L609.305 55.8636C609.078 56.0114 608.749 56.142 608.317 56.2557C607.896 56.3693 607.436 56.4773 606.936 56.5795C606.447 56.6705 605.953 56.7557 605.453 56.8352C604.953 56.9034 604.504 56.9716 604.107 57.0398C603.232 57.1648 602.447 57.3636 601.754 57.6364C601.061 57.9091 600.499 58.2784 600.067 58.7443C599.635 59.1989 599.368 59.767 599.266 60.4489C599.107 61.4375 599.339 62.1932 599.964 62.7159C600.601 63.2273 601.482 63.483 602.607 63.483ZM633.195 33.0909L627.399 68H620.138L625.933 33.0909H633.195ZM637.784 68.4432C636.636 68.4432 635.693 68.0455 634.955 67.25C634.227 66.4545 633.898 65.4886 633.966 64.3523C634.045 63.2273 634.517 62.2784 635.381 61.5057C636.256 60.7216 637.261 60.3295 638.398 60.3295C639.489 60.3295 640.409 60.7216 641.159 61.5057C641.909 62.2898 642.239 63.2386 642.148 64.3523C642.091 65.1023 641.847 65.7898 641.415 66.4148C640.994 67.0284 640.46 67.5227 639.812 67.8977C639.165 68.2614 638.489 68.4432 637.784 68.4432Z" fill="black"/>
</svg>
